<?xml version="1.0" encoding="UTF-8" standalone="no"?>
<!-- Created with Inkscape (http://www.inkscape.org/) -->

<svg
   width="1080"
   height="287.7009"
   viewBox="0 0 285.74999 76.120862"
   version="1.1"
   id="svg1834"
   xmlns="http://www.w3.org/2000/svg"
   xmlns:svg="http://www.w3.org/2000/svg">
  <defs
     id="defs1831" />
  <g
     id="layer1"
     transform="translate(2.2850931e-5,2.4333596e-5)">
    <g
       aria-label="MAARİF"
       id="text236"
       style="font-size:74.3506px;font-family:'Smooch Sans';-inkscape-font-specification:'Smooch Sans, Normal';text-align:end;text-anchor:end;fill:#050625;stroke-width:0">
      <path
         d="M 54.466931,60.625832 V 14.528459 h 4.832789 l 11.15259,35.613938 0.07435,0.297402 h 0.07435 l 0.07435,-0.297402 11.15259,-35.613938 h 4.90714 V 60.625832 H 82.943211 V 22.409623 22.260921 L 82.79451,23.227479 72.162374,56.016094 H 69.039649 L 58.407513,23.524882 v -0.743506 l -0.148701,-0.148702 v 37.993158 z"
         id="path146" />
      <path
         d="m 92.38568,60.625832 9.81428,-46.097373 h 5.65064 l 9.66558,46.097373 h -3.94058 l -2.37922,-11.226941 0.81786,0.743506 H 97.813274 l 0.669155,-0.743506 -2.230518,11.226941 z m 6.1711,-13.085706 -0.371753,-0.446104 h 13.531813 l -0.52046,0.446104 -5.42759,-28.178878 -0.1487,-0.520454 h -1.26396 l -0.1487,0.520454 z"
         id="path148" />
      <path
         d="m 120.34146,60.625832 9.81428,-46.097373 h 5.65065 l 9.66558,46.097373 h -3.94059 l -2.37921,-11.226941 0.81785,0.743506 h -14.20096 l 0.66915,-0.743506 -2.23052,11.226941 z m 6.1711,-13.085706 -0.37175,-0.446104 h 13.53181 l -0.52045,0.446104 -5.4276,-28.178878 -0.1487,-0.520454 h -1.26396 l -0.1487,0.520454 z"
         id="path150" />
      <path
         d="m 151.27128,14.528459 h 13.97791 q 3.19707,0 4.68409,0.817856 1.56136,0.743506 2.00746,2.37922 0.52046,1.561362 0.52046,3.940582 v 8.327267 q 0,2.676622 -0.44611,5.055841 -0.4461,2.304868 -2.30487,3.79188 -1.85876,1.412662 -6.09674,1.412662 h -8.55032 v 20.372065 h -3.79188 z m 19.33115,47.06393 -8.55032,-21.561674 2.67662,-0.297402 1.04091,0.297402 0.22305,0.520454 8.10422,19.70291 z m -7.95551,-24.386997 q 2.97402,0 4.46103,-1.487012 1.56137,-1.487012 1.56137,-5.055841 v -7.50941 q 0,-3.197076 -1.11526,-4.386686 -1.04091,-1.189609 -3.94058,-1.189609 h -8.55032 v 19.628558 z"
         id="path152" />
      <path
         d="m 180.26796,14.528459 h 3.79188 v 46.097373 h -3.79188 z m 1.85877,-4.6097374 q -1.33831,0 -1.56136,-0.4461036 -0.22306,-0.4461036 -0.22306,-1.3383108 0,-0.9665579 0.22306,-1.4126615 0.22305,-0.4461036 1.48701,-0.4461036 1.33831,0 1.56136,0.4461036 0.22305,0.4461036 0.22305,1.4126615 0,0.8922072 -0.22305,1.3383108 -0.22305,0.4461036 -1.48701,0.4461036 z"
         id="path154" />
      <path
         d="m 192.75882,14.528459 h 20.52076 v 3.048375 H 196.5507 V 33.19046 h 15.53927 l -0.5948,2.974024 H 196.5507 v 24.461348 h -3.79188 z"
         id="path156" />
    </g>
    <g
       aria-label="&lt;"
       id="text1097"
       style="font-size:83.8148px;-inkscape-font-specification:'sans-serif, Normal';text-align:end;text-anchor:end;fill: #050625;stroke-width:0">
      <path
         d="M 47.227651,61.592382 -2.2850931e-5,40.597758 V 35.523034 L 47.227651,14.528409 v 7.366535 L 9.9857244,38.060396 47.227651,54.225847 Z"
         id="path143" />
    </g>
    <g
       aria-label="&gt;"
       id="text1097-3"
       style="font-size:83.8148px;-inkscape-font-specification:'sans-serif, Normal';text-align:end;text-anchor:end;fill: #050625;stroke-width:0">
      <path
         d="M 285.74999,40.597758 238.52232,61.592382 V 54.225847 L 275.76424,38.060396 238.52232,21.894944 v -7.366535 l 47.22767,20.994625 z"
         id="path140" />
    </g>
    <g
       aria-label="/"
       id="text1097-3-3"
       style="font-size:83.8148px;-inkscape-font-specification:'sans-serif, Normal';text-align:end;text-anchor:end;fill: #050625;stroke-width:0">
      <path
         d="M 239.95393,-2.4333596e-5 210.61057,76.120836 h -7.08006 L 232.7511,-2.4333596e-5 Z"
         id="path137" />
    </g>
  </g>
</svg>
